HIERARCHY
ROOT Hips
{
  OFFSET 40.9192 92.6879 18.85
  CHANNELS 6 Xposition Yposition Zposition Zrotation Xrotation Yrotation
  JOINT LeftUpLeg
  {
    OFFSET 8.64259 1.95398 -2.38835
    CHANNELS 3 Zrotation Xrotation Yrotation
    JOINT LeftLeg
    {
      OFFSET 43.7702 0 0
      CHANNELS 3 Zrotation Xrotation Yrotation
      JOINT LeftFoot
      {
        OFFSET 40.6238 0 0
        CHANNELS 3 Zrotation Xrotation Yrotation
        JOINT LeftToeBase
        {
          OFFSET 12.7242 0 0
          CHANNELS 3 Zrotation Xrotation Yrotation
          End Site
          {
            OFFSET 0 0 0
          }
        }
      }
    }
  }
  JOINT RightUpLeg
  {
    OFFSET -8.2249 1.95398 -2.59336
    CHANNELS 3 Zrotation Xrotation Yrotation
    JOINT RightLeg
    {
      OFFSET 43.5653 0 0
      CHANNELS 3 Zrotation Xrotation Yrotation
      JOINT RightFoot
      {
        OFFSET 40.6238 0 0
        CHANNELS 3 Zrotation Xrotation Yrotation
        JOINT RightToeBase
        {
          OFFSET 12.7242 0 0
          CHANNELS 3 Zrotation Xrotation Yrotation
          End Site
          {
            OFFSET 0 0 0
          }
        }
      }
    }
  }
  JOINT Spine
  {
    OFFSET 0.165834 0.87714 6.61349
    CHANNELS 3 Zrotation Xrotation Yrotation
    JOINT Spine1
    {
      OFFSET 7.38963 1.71661e-005 0
      CHANNELS 3 Zrotation Xrotation Yrotation
      JOINT Spine2
      {
        OFFSET 11.9445 1.14441e-005 0
        CHANNELS 3 Zrotation Xrotation Yrotation
        JOINT Spine3
        {
          OFFSET 14.7254 4.19617e-005 0
          CHANNELS 3 Zrotation Xrotation Yrotation
          JOINT Spine4
          {
            OFFSET 10.9679 0 0
            CHANNELS 3 Zrotation Xrotation Yrotation
            JOINT RightShoulder
            {
              OFFSET 2.46616 -1.6653 3.69651
              CHANNELS 3 Zrotation Xrotation Yrotation
              JOINT RightArm
              {
                OFFSET 13.0012 0 0
                CHANNELS 3 Zrotation Xrotation Yrotation
                JOINT RightForeArm
                {
                  OFFSET 28.7848 1.52588e-005 0
                  CHANNELS 3 Zrotation Xrotation Yrotation
                  JOINT RightHand
                  {
                    OFFSET 26.5688 1.52588e-005 0
                    CHANNELS 3 Zrotation Xrotation Yrotation
                    End Site
                    {
                      OFFSET 0 0 0
                    }
                  }
                }
              }
            }
            JOINT LeftShoulder
            {
              OFFSET 2.38034 -1.29275 -3.7523
              CHANNELS 3 Zrotation Xrotation Yrotation
              JOINT LeftArm
              {
                OFFSET 16.3182 6.10351e-005 0
                CHANNELS 3 Zrotation Xrotation Yrotation
                JOINT LeftForeArm
                {
                  OFFSET 27.0901 0 0
                  CHANNELS 3 Zrotation Xrotation Yrotation
                  JOINT LeftHand
                  {
                    OFFSET 24.5451 1.52588e-005 0
                    CHANNELS 3 Zrotation Xrotation Yrotation
                    End Site
                    {
                      OFFSET 0 0 0
                    }
                  }
                }
              }
            }
            JOINT Neck
            {
              OFFSET 5.0226 -0.0266342 0
              CHANNELS 3 Zrotation Xrotation Yrotation
              JOINT Head
              {
                OFFSET 6.69363 2.86102e-005 0
                CHANNELS 3 Zrotation Xrotation Yrotation
                End Site
                {
                  OFFSET 0 0 0
                }
              }
            }
          }
        }
      }
    }
  }
}
MOTION
Frames:	7
Frame Time:	0.0416667
-283.489 79.5934 -284.318 81.9431 -42.7567 85.1447 -169.408 66.4579 88.498 -60.6701 22.0816 0.233681 71.2465 30.2515 -17.6939 9.86876 -31.1712 32.5467 177.436 53.7271 93.2666 -84.6221 18.2768 2.4573 12.1021 9.05175 21.1277 55.4176 7.50268 34.6176 -0.471598 8.36241 -90.1555 10.1482 -1.01052 -0.223461 -1.52231 -1.01936 -0.178771 -24.0599 -0.896643 -0.516852 -4.04727 -0.896643 -0.516864 93.3313 -50.0599 -95.6905 26.4977 -2.28774 20.1491 -24.275 16.9452 -130.418 12.8965 -2.08019 -18.871 -97.5841 -46.4513 66.2912 -28.6821 16.9973 10.9014 -8.34948 -5.10978 -57.7114 35.3354 0.163525 -3.62589 24.6244 2.61614 -0.70268 -1.89402 2.86144 4.15526 
-277.082 81.4141 -278.344 78.8081 -47.8167 83.4558 -168.511 63.7973 93.2926 -77.0384 17.3701 0.345008 87.9953 29.8763 -19.7157 10.086 -31.0959 32.9827 177.185 43.0922 97.0237 -76.5629 5.3126 -1.04211 14.7145 10.2837 17.3737 86.4632 15.4075 25.7763 0.450464 8.23052 -89.9566 10.4188 0.917158 -2.9359e-005 -1.25184 0.916272 -0.0404082 -23.7896 0.87478 0.275627 -3.77695 0.874773 0.275621 92.6658 -47.1926 -97.2592 29.3182 1.93846 8.33503 -24.1698 10.7935 -124.27 12.0784 -1.70752 -16.4426 -98.2116 -46.0175 65.1814 -32.323 14.2921 20.4079 -8.33468 -5.23247 -55.7959 36.0047 0.443152 -2.85343 27.7815 1.13333 -1.90594 -5.03869 1.75612 4.12878 
-269.21 86.112 -269.829 76.1745 -52.0846 77.6286 -163.008 53.4134 90.3606 -79.9902 16.0275 -1.113 74.334 13.01 -8.00492 19.2977 -15.411 25.492 179.589 23.4315 94.6269 -57.1766 -5.99562 -5.29129 15.6089 9.87605 14.8086 106.979 15.5493 15.7457 1.28522 7.9041 -89.4616 11.0547 2.80829 0.804311 -0.613382 2.84096 0.679829 -23.1658 2.43667 1.6115 -3.15313 2.43669 1.61151 93.7895 -41.9095 -96.4314 33.5153 3.24303 3.35876 -25.056 4.99096 -118.541 5.67509 -1.04935 -19.1919 -95.8862 -47.3723 69.1706 -36.329 16.8808 32.0811 -8.92435 -5.0135 -63.527 34.3443 0.600642 -2.30702 26.1375 -0.155411 1.55309 -6.07903 -0.691632 1.85406 
-258.263 91.0407 -259.794 76.6466 -52.2275 76.7558 -164.022 50.5373 89.5681 -62.2956 16.146 -3.73345 50.646 -6.58308 0.0798077 34.5866 4.27727 15.3293 177.938 4.22343 88.379 -38.0557 -15.1169 -6.52383 23.4078 8.96865 11.5518 89.8543 6.98658 7.5096 1.67104 7.65727 -89.2247 11.5438 3.68707 1.16528 -0.12227 3.73477 1.00167 -22.6863 3.16632 2.22033 -2.67362 3.16632 2.22033 94.0186 -38.717 -96.6809 35.1418 1.93502 3.41167 -28.7537 -3.86091 -114.585 -8.9708 1.46449 -23.0865 -92.9408 -45.3938 73.089 -42.5031 16.1793 41.2004 -8.62507 -4.48183 -68.5851 36.7151 0.48872 -2.70387 23.6858 -1.65374 3.82282 -5.96331 -2.80788 -1.27972 
-245.797 94.5157 -249.163 76.3575 -51.3372 76.3616 -167.973 44.1991 90.3202 -33.5852 24.4808 -5.97891 49.0673 -8.0523 3.21016 37.4545 7.13391 13.2699 175.879 -3.79184 87.4713 -36.8509 -18.069 -7.97847 46.1696 3.76956 3.42524 12.8656 -0.746118 -0.310387 1.88995 7.43456 -89.0969 11.9843 4.18356 1.34729 0.319572 4.23881 1.16156 -22.2522 3.58514 2.5435 -2.23957 3.58514 2.54348 94.2548 -37.7129 -96.4603 34.9502 -3.45225 5.43107 -32.7129 -8.43857 -115.712 -23.3213 3.67009 -21.315 -92.9391 -43.2204 72.4466 -45.8464 10.3036 46.9298 -5.54957 -3.61485 -74.3289 37.705 0.988536 -1.412 22.0826 -2.75008 4.35137 -6.49656 -3.95424 -2.44568 
-234.132 94.9357 -239.836 77.7534 -48.5721 80.4864 -169.594 40.6063 90.9774 -24.8481 20.1982 -5.72636 50.2092 -7.21826 0.208301 41.1287 10.8588 14.6147 177.355 -1.99386 89.9056 -54.2618 -15.6349 -6.21521 68.1417 -4.41486 -2.34172 -16.236 11.6241 -29.1167 1.7231 7.28218 -89.4045 12.3008 3.70662 0.769393 0.635023 3.73692 0.60529 -21.9336 3.3039 1.84889 -1.92097 3.30388 1.84887 94.6074 -38 -95.7672 35.2686 -12.9636 8.75612 -30.7152 -2.4807 -112.754 -26.6157 4.12943 -20.8055 -90.9064 -43.485 75.7729 -46.0763 10.495 44.7064 -1.84211 -2.70673 -75.7796 38.5636 0.424547 -2.97476 20.0538 -3.23105 3.6306 -5.26462 -4.16918 -2.71616 
-223.879 93.8942 -230.479 84.5493 -47.0226 84.9177 -168.292 32.4582 88.845 -30.4514 19.0746 -5.96577 51.798 -5.51813 1.21861 39.9959 9.39572 8.45391 176.811 5.11442 93.7315 -81.6928 -10.5436 -4.16422 73.1597 -6.63948 -3.18009 -21.0459 15.1247 -33.3622 1.38225 7.62226 -89.3142 11.6168 3.07085 1.04879 -0.0508668 3.11402 0.912498 -22.605 2.61364 1.92364 -2.59238 2.61365 1.92364 94.2943 -41.8894 -95.5775 35.1105 -21.9964 14.2326 -29.3257 -3.79566 -98.8512 -32.1294 6.72541 -25.988 -91.1399 -46.0764 76.0758 -41.5924 8.77153 40.1994 -0.838538 -2.65578 -79.2335 37.7547 1.05172 -1.2513 15.8848 -3.30488 1.2201 -1.96839 -3.59082 -2.3767 
